<svg width="32" height="32" viewBox="0 0 32 32" fill="none" xmlns="http://www.w3.org/2000/svg">
<path d="M14.3385 31.0838C15.246 30.4521 16.1209 29.3526 16.574 27.9766C16.8211 27.2925 16.9599 26.536 16.9945 25.736C17.0393 24.9366 16.9318 24.0809 16.6995 23.272C16.5516 22.735 16.3423 22.2185 16.0927 21.7225C23.127 22.1296 30.8377 17.0928 31.7452 16.4816H31.7638C31.7612 16.4803 31.7567 16.4771 31.7548 16.4752C31.7574 16.4733 31.7619 16.4707 31.7644 16.4688H31.7459C30.8179 15.8403 22.7519 10.5481 15.5807 11.2349C16.0761 10.4957 16.4761 9.69309 16.7295 8.83741C16.9779 8.03293 17.1027 7.17853 17.0739 6.37789C17.0553 5.57725 16.9318 4.81757 16.6982 4.12829C16.2726 2.74333 15.4207 1.62653 14.5267 0.975653C13.6492 0.310693 12.4703 -0.0438675 11.4143 0.0182126L11.0227 0.0482926L10.8294 0.0674925L10.6489 0.108453C10.4095 0.165413 10.1734 0.226853 9.94362 0.292133C9.73178 0.377253 9.52634 0.467493 9.32474 0.557733C9.22234 0.605733 9.12762 0.643493 9.02266 0.701093L8.7065 0.887333C7.88858 1.42109 7.3273 2.14685 6.99002 2.87133C6.65594 3.60349 6.51578 4.34333 6.58042 5.09405C6.61818 5.46973 6.70778 5.85949 6.9305 6.25309C6.98746 6.35165 7.04634 6.44445 7.12826 6.54109C7.20058 6.63389 7.28634 6.72221 7.3881 6.80413C7.57626 6.96669 7.8169 7.08765 8.04282 7.14589C8.5081 7.26237 8.8601 7.16125 9.11226 7.06141C9.35482 6.94877 9.52442 6.81885 9.6569 6.69469C10.1491 6.18269 10.1855 5.78973 10.0422 5.60349C9.88858 5.40061 9.49306 5.43837 9.03226 5.43965C8.9561 5.43581 8.88506 5.42429 8.82106 5.40893C8.86202 5.38397 8.9081 5.35837 8.9657 5.33405C9.06234 5.30013 9.02906 5.30525 9.0489 5.29373C9.05466 5.29181 9.06746 5.26685 9.07386 5.25469C9.08986 5.22205 9.10586 5.17725 9.12826 5.12349C9.21146 4.90845 9.36762 4.59869 9.59098 4.34141C9.81434 4.08029 10.0902 3.87229 10.3769 3.75581C10.4147 3.74429 10.4518 3.73149 10.4876 3.71741C10.5273 3.70333 10.5881 3.69117 10.6374 3.67709C10.7404 3.64957 10.8428 3.61693 10.9433 3.58429C11.0399 3.57725 11.134 3.56637 11.2275 3.54909L11.2979 3.53565L11.3619 3.54205C11.4041 3.54525 11.4463 3.54653 11.4886 3.54653C11.8201 3.56701 12.087 3.65853 12.3897 3.87677C12.679 4.08925 13.1187 4.52701 13.4131 5.28733C13.5737 5.65341 13.6806 6.09309 13.7343 6.55773C13.7977 7.02429 13.774 7.51325 13.6716 8.03933C13.4835 9.08829 12.903 10.2211 12.0723 11.2278C11.2371 12.2339 10.1529 13.1133 8.9785 13.7347C7.80538 14.3549 6.53818 14.7261 5.37082 14.735C4.78586 14.7517 4.2297 14.6717 3.72858 14.5161C3.47066 14.4534 3.24346 14.3389 3.01178 14.2454C2.79674 14.1264 2.57658 14.0201 2.38906 13.8845C1.62234 13.3571 1.11418 12.7222 0.792259 12.2633C0.478659 11.7974 0.304579 11.5171 0.253379 11.5376C0.205379 11.5555 0.248899 11.8825 0.436419 12.4477C0.635459 13.0038 1.01882 13.8064 1.7977 14.5949C1.98778 14.7945 2.22074 14.9699 2.45818 15.1587C2.71162 15.3225 2.97274 15.5088 3.27226 15.6419C3.5065 15.7699 3.76186 15.8621 4.02554 15.9555C3.8105 16.0278 3.60122 16.104 3.40666 16.2051C3.10522 16.3312 2.84218 16.5117 2.58554 16.6691C2.34554 16.8521 2.10938 17.0217 1.9161 17.2163C1.12378 17.9837 0.722499 18.7741 0.508739 19.3232C0.306499 19.8813 0.250819 20.2051 0.291779 20.2217C0.349379 20.2461 0.534339 19.9715 0.860739 19.5158C1.19482 19.0672 1.71706 18.447 2.4921 17.9401C2.68154 17.8096 2.90298 17.7091 3.1193 17.5952C3.35162 17.5075 3.5801 17.3987 3.83866 17.3424C4.34042 17.199 4.8953 17.1305 5.4777 17.16C6.1625 17.1798 6.8793 17.3277 7.5897 17.5753C9.15834 18.4496 10.654 19.4205 11.886 20.6928C11.9475 20.7222 12.0115 20.7453 12.0735 20.7734C12.0787 20.7805 12.0851 20.7869 12.0902 20.7939C12.8991 21.8153 13.4572 22.9571 13.6249 24.0073C13.7177 24.5347 13.7311 25.023 13.6595 25.4877C13.5961 25.951 13.4815 26.3875 13.3139 26.7504C13.0047 27.5043 12.5567 27.9331 12.2623 28.1398C11.9558 28.3523 11.687 28.4374 11.3548 28.4509C11.3126 28.4496 11.2703 28.4502 11.2281 28.4528L11.1635 28.4579L11.0937 28.4432C11.0003 28.424 10.9062 28.4105 10.8102 28.4016C10.7103 28.367 10.6086 28.3318 10.5062 28.3024C10.4575 28.287 10.3967 28.2736 10.3577 28.2589C10.3219 28.2435 10.2854 28.2301 10.2483 28.2179C9.9641 28.095 9.69274 27.8813 9.4745 27.6157C9.2569 27.3533 9.10778 27.0403 9.02842 26.824C9.00794 26.7702 8.99258 26.7241 8.97722 26.6915C8.97146 26.6793 8.9593 26.6544 8.95354 26.6518C8.93434 26.6397 8.96698 26.6461 8.87098 26.6102C8.81402 26.5846 8.76794 26.5577 8.72762 26.5321C8.79226 26.5181 8.8633 26.5085 8.93946 26.5059C9.40026 26.5168 9.7945 26.5635 9.95322 26.3638C10.1004 26.1808 10.0729 25.7872 9.59162 25.2643C9.46234 25.1376 9.2953 25.0038 9.0553 24.8861C8.8057 24.7811 8.45562 24.6723 7.98778 24.7792C7.76058 24.8323 7.51738 24.9481 7.32538 25.1069C7.22234 25.1869 7.13466 25.2733 7.06042 25.3641C6.97594 25.4589 6.91578 25.551 6.85626 25.6477C6.62458 26.0361 6.5273 26.424 6.48122 26.799C6.40058 27.5485 6.52474 28.2909 6.84346 29.0301C7.16474 29.7616 7.71066 30.4989 8.51706 31.0499L8.82938 31.2425C8.93306 31.3021 9.02714 31.3424 9.12826 31.3923C9.32858 31.487 9.53146 31.5817 9.74138 31.6713C9.96986 31.7417 10.2041 31.8083 10.4422 31.8697L10.622 31.9145L10.8147 31.9376L11.2057 31.976C12.2611 32.0605 13.447 31.7315 14.3385 31.0838ZM14.7385 16.1629C17.0713 11.688 24.0511 16.1725 24.0511 16.1725C16.8838 19.9261 14.7385 16.1629 14.7385 16.1629Z" fill="url(#paint0_linear_792:210)"/>
<defs>
<linearGradient id="paint0_linear_792:210" x1="-0.134387" y1="14.5689" x2="31.5192" y2="18.4474" gradientUnits="userSpaceOnUse">
<stop stop-color="#AAB8CE"/>
<stop offset="0.1983" stop-color="#A3B1C6"/>
<stop offset="0.5061" stop-color="#919DB0"/>
<stop offset="0.8831" stop-color="#747D8D"/>
<stop offset="1" stop-color="#6A7280"/>
</linearGradient>
</defs>
</svg>
