<svg width="133" height="24" viewBox="0 0 133 24" fill="none" xmlns="http://www.w3.org/2000/svg">
<path d="M83.5747 12.9989C83.5937 12.9861 83.6153 12.9777 83.6379 12.9742C83.744 12.9327 83.8431 12.8957 83.9291 12.8596C83.9824 12.8319 84.0378 12.8086 84.0948 12.7899C85.7254 12.0166 87.0919 10.313 87.0919 8.51948C87.0919 4.75521 84.2931 3.57275 81.0189 3.57275H74.8389C74.9003 3.69444 75.2134 5.03032 75.2134 5.08146V21.6631H78.0745C78.1402 21.6637 78.2055 21.6511 78.2663 21.6261C78.3272 21.601 78.3825 21.564 78.429 21.5172C78.4754 21.4704 78.5122 21.4147 78.537 21.3535C78.5618 21.2923 78.5742 21.2267 78.5735 21.1605V13.602H79.9409C81.953 13.602 83.2002 13.1347 83.5054 13.0271C83.5151 13.0086 83.5467 13.0015 83.5712 12.9989H83.5747ZM80.1584 11.1948H78.5797V6.04964H80.7101C82.2275 6.04964 83.5221 6.86616 83.5221 8.48862C83.5221 10.589 82.0705 11.1921 80.1611 11.1921" fill="#D3D3D3"/>
<path d="M66.4111 3.57275H60.71C60.7705 3.69356 61.081 5.03032 61.081 5.08146V21.6631H63.9456C64.0802 21.6648 64.21 21.6129 64.3068 21.5188C64.4036 21.4246 64.4594 21.2959 64.4622 21.1605V14.3956H66.4698C69.7958 14.3956 72.9603 12.7643 72.9603 8.9877C72.9603 4.90775 69.9721 3.57275 66.4084 3.57275H66.4111ZM66.5383 11.9998H64.4718V6.02055H66.5514C68.4354 6.02055 69.3713 7.18448 69.3713 8.9877C69.3713 10.7433 68.367 11.9998 66.5409 11.9998" fill="#D3D3D3"/>
<path d="M80.7812 14.9751L84.9299 21.6616H88.7628L84.0984 14.4575C83.0255 14.7999 81.9069 14.9754 80.7812 14.9778" fill="#D3D3D3"/>
<path d="M89.7384 5.08146V21.6587H92.6328C92.7671 21.6611 92.8969 21.6098 92.9936 21.516C93.0903 21.4223 93.146 21.2938 93.1485 21.1588V3.57275H89.4121C89.4235 3.69356 89.7393 5.02944 89.7393 5.08146" fill="#D3D3D3"/>
<path d="M105.94 14.0499C105.6 15.0199 105.53 15.914 105.282 16.9545C105.081 15.9272 104.941 14.9467 104.565 13.9494L100.746 3.57275H96.0176C96.0255 3.69356 96.3588 5.02944 96.3588 5.08146V21.6481H98.5796C98.7085 21.6367 98.8285 21.5773 98.9161 21.4816C99.0037 21.3858 99.0526 21.2606 99.0532 21.1305V9.38538C99.0532 8.78313 98.933 8.17206 98.9216 7.6042C99.1225 8.19323 99.297 8.78313 99.5075 9.38538L104.036 21.6631H105.861L110.257 9.38538C110.469 8.78313 110.642 8.19323 110.847 7.6042C110.771 8.1951 110.727 8.7897 110.716 9.38538V21.6481H113.575C113.705 21.6374 113.825 21.5783 113.914 21.4825C114.002 21.3867 114.052 21.2611 114.052 21.1305V3.57275H109.711L105.94 14.0499Z" fill="#D3D3D3"/>
<path d="M124.318 3.30655C118.818 3.30655 115.786 7.30625 115.786 12.5907C115.786 17.8337 118.788 21.9375 124.294 21.9375C129.751 21.9375 132.97 17.9695 132.97 12.6524C132.97 7.23219 129.923 3.30566 124.32 3.30566L124.318 3.30655ZM124.396 19.5972C120.529 19.5972 119.408 15.7377 119.408 12.4946C119.408 9.30434 120.557 5.64059 124.352 5.64059C128.229 5.64059 129.336 9.52831 129.336 12.7353C129.336 15.9423 128.187 19.5972 124.396 19.5972Z" fill="#D3D3D3"/>
<path d="M2.29988 12.4428C2.29988 13.7813 3.21381 14.9259 4.7996 14.9259C5.31965 14.932 5.83272 14.8052 6.29066 14.5573V13.3114H4.39263V12.2691H7.49315V15.0687C6.75205 15.7484 5.7825 16.1207 4.77942 16.111C2.58406 16.111 0.96582 14.4577 0.96582 12.4296C0.96582 10.4015 2.55073 8.73145 4.75662 8.73145C5.79334 8.73145 6.58536 9.01714 7.33791 9.58941L6.75464 10.5726C6.05296 10.1026 5.45391 9.90861 4.79258 9.90861C3.19364 9.90861 2.29988 11.1449 2.29988 12.4428Z" fill="#D3D3D3"/>
<path d="M14.6488 13.3004C14.7707 14.0667 15.1566 14.9758 15.9092 14.9758C16.2002 14.9726 16.4795 14.8596 16.6916 14.6592L17.1485 15.5586C16.7653 15.924 16.254 16.1224 15.7259 16.1106C14.0489 16.1106 13.5332 14.1892 13.4595 13.3718H12.2587V15.9977H10.958V8.8457H14.0278C15.44 8.8457 16.2434 9.91882 16.2434 11.1445C16.2425 12.1867 15.6426 13.0465 14.6488 13.3004ZM13.8252 12.3305C14.4962 12.3305 14.9233 11.8393 14.9233 11.1348C14.9233 10.4302 14.4848 9.92852 13.8252 9.92852H12.2587V12.3305H13.8252Z" fill="#D3D3D3"/>
<path d="M25.7227 8.8457V13.3216C25.7227 15.1495 24.4018 16.1106 22.8467 16.1106C21.2916 16.1106 19.9707 15.1495 19.9707 13.3216V8.8457H21.2714V13.3216C21.2714 14.4344 21.9933 14.9863 22.8502 14.9863C23.7071 14.9863 24.429 14.4344 24.429 13.3216V8.8457H25.7227Z" fill="#D3D3D3"/>
<path d="M29.4922 15.9977V8.8457H32.4804C33.9031 8.8457 34.7056 9.90383 34.7056 11.1445C34.7056 12.3851 33.8926 13.3824 32.4804 13.3824H30.7929V15.9977H29.4922ZM32.2778 12.3499C32.9585 12.3499 33.376 11.8499 33.376 11.1348C33.376 10.3985 32.9585 9.9003 32.2778 9.9003H30.7929V12.3516L32.2778 12.3499Z" fill="#D3D3D3"/>
<path d="M41.1994 8.73389C43.2325 8.73389 44.92 10.389 44.92 12.4223C44.92 14.4557 43.2325 16.1108 41.1994 16.1108C39.1663 16.1108 37.4805 14.4557 37.4805 12.4223C37.4805 10.389 39.1671 8.73389 41.1994 8.73389ZM41.1994 14.9257C42.5106 14.9257 43.5982 13.8675 43.5982 12.4223C43.5982 10.9771 42.5106 9.91899 41.1994 9.91899C39.8881 9.91899 38.8014 10.9815 38.8014 12.4223C38.8014 13.8631 39.889 14.9257 41.1994 14.9257Z" fill="#D3D3D3"/>
<path d="M53.6477 0H52.9951V24H53.6477V0Z" fill="#D3D3D3"/>
</svg>
